<svg xmlns="http://www.w3.org/2000/svg" version="1.1" xmlns:xlink="http://www.w3.org/1999/xlink" xmlns:svgjs="http://svgjs.dev/svgjs" width="2000" height="1247" viewBox="0 0 2000 1247"><g transform="matrix(1,0,0,1,-1.2121212121212466,0.504858299595071)"><svg viewBox="0 0 396 247" data-background-color="#ffffff" preserveAspectRatio="xMidYMid meet" height="1247" width="2000" xmlns="http://www.w3.org/2000/svg" xmlns:xlink="http://www.w3.org/1999/xlink"><g id="tight-bounds" transform="matrix(1,0,0,1,0.2400000000000091,-0.09999999999999432)"><svg viewBox="0 0 395.52 247.2" height="247.2" width="395.52"><g><svg></svg></g><g><svg viewBox="0 0 395.52 247.2" height="247.2" width="395.52"><g transform="matrix(1,0,0,1,75.54432000000001,83.0722475549806)"><svg viewBox="0 0 244.43135999999996 81.05550489003879" height="81.05550489003879" width="244.43135999999996"><g><svg viewBox="0 0 244.43135999999996 81.05550489003879" height="81.05550489003879" width="244.43135999999996"><g><svg viewBox="0 0 244.43135999999996 81.05550489003879" height="81.05550489003879" width="244.43135999999996"><g><svg viewBox="0 0 244.43135999999996 81.05550489003879" height="81.05550489003879" width="244.43135999999996"><g id="textblocktransform"><svg viewBox="0 0 244.43135999999996 81.05550489003879" height="81.05550489003879" width="244.43135999999996" id="textblock"><g><svg viewBox="0 0 244.43135999999996 81.05550489003879" height="81.05550489003879" width="244.43135999999996"><g transform="matrix(1,0,0,1,0,0)"><svg width="244.43135999999996" viewBox="3.849999999999999 -38.15 115.94000000000001 38.449999999999996" height="81.05550489003879" data-palette-color="#2257bf"><path d="M7.85 0L3.85 0 3.85-29.4Q3.85-31.55 4.48-32.98 5.1-34.4 6.15-35.23 7.2-36.05 8.5-36.43 9.8-36.8 11.1-36.8L11.1-36.8Q13.3-36.75 15.88-36.7 18.45-36.65 21.18-36.58 23.9-36.5 26.5-36.3L26.5-36.3 26.5-33.15 12.05-33.15Q10.05-33.15 8.95-32.05 7.85-30.95 7.85-28.8L7.85-28.8 7.85-19.25 24.3-19 24.3-15.95 7.85-15.7 7.85 0ZM35.85 0.3L35.85 0.3Q32.9 0.3 31-1.45 29.1-3.2 29.1-6.4L29.1-6.4 29.1-8.3Q29.1-11.45 31.17-13.4 33.25-15.35 37.45-15.35L37.45-15.35 46.5-15.35 46.5-18.65Q46.5-20.3 45.92-21.48 45.35-22.65 43.87-23.3 42.4-23.95 39.6-23.95L39.6-23.95 31.3-23.95 31.3-26.3Q33.05-26.6 35.37-26.85 37.7-27.1 40.85-27.1L40.85-27.1Q44.1-27.15 46.25-26.3 48.4-25.45 49.42-23.63 50.45-21.8 50.45-18.85L50.45-18.85 50.45 0 47.4 0 46.65-3.05Q46.45-2.85 45.42-2.35 44.4-1.85 42.82-1.23 41.25-0.6 39.42-0.15 37.6 0.3 35.85 0.3ZM37.5-2.65L37.5-2.65Q38.4-2.6 39.55-2.85 40.7-3.1 41.9-3.43 43.1-3.75 44.12-4.1 45.15-4.45 45.8-4.7 46.45-4.95 46.5-4.95L46.5-4.95 46.5-13.35 38.35-13Q35.5-12.9 34.27-11.6 33.05-10.3 33.05-8.25L33.05-8.25 33.05-7.05Q33.05-5.45 33.72-4.48 34.4-3.5 35.42-3.1 36.45-2.7 37.5-2.65ZM70.75 0.3L70.75 0.3Q68.84 0.3 67.22-0.18 65.59-0.65 64.25-1.33 62.89-2 61.84-2.7L61.84-2.7 61.09 0 57.89 0 57.89-38.15 61.84-38.15 61.84-24.25Q63.74-25.35 66.14-26.2 68.55-27.05 70.59-27.05L70.59-27.05Q73.8-27.05 75.89-25.7 78-24.35 79.07-21.3 80.14-18.25 80.14-13.15L80.14-13.15Q80.14-9 79.19-5.98 78.25-2.95 76.17-1.33 74.09 0.3 70.75 0.3ZM69.5-3L69.5-3Q71.69-3 73.17-4.13 74.64-5.25 75.42-7.55 76.19-9.85 76.19-13.3L76.19-13.3Q76.19-17.7 75.32-19.93 74.44-22.15 72.94-22.95 71.44-23.75 69.5-23.75L69.5-23.75Q67.25-23.75 65.47-23.13 63.7-22.5 61.84-21.5L61.84-21.5 61.84-5.15Q63.39-4.4 65.27-3.7 67.14-3 69.5-3ZM97.39 0.3L97.39 0.3Q94.49 0.3 92.32-0.3 90.14-0.9 88.69-2.4 87.24-3.9 86.54-6.58 85.84-9.25 85.84-13.4L85.84-13.4Q85.84-17.6 86.54-20.28 87.24-22.95 88.69-24.43 90.14-25.9 92.32-26.48 94.49-27.05 97.39-27.05L97.39-27.05Q100.29-27.05 102.47-26.45 104.64-25.85 106.09-24.38 107.54-22.9 108.27-20.23 108.99-17.55 108.99-13.4L108.99-13.4Q108.99-9.2 108.27-6.53 107.54-3.85 106.12-2.38 104.69-0.9 102.49-0.3 100.29 0.3 97.39 0.3ZM97.39-2.95L97.39-2.95Q99.24-2.95 100.67-3.3 102.09-3.65 103.04-4.7 103.99-5.75 104.49-7.85 104.99-9.95 104.99-13.4L104.99-13.4Q104.99-16.9 104.49-18.95 103.99-21 103.04-22.05 102.09-23.1 100.67-23.45 99.24-23.8 97.39-23.8L97.39-23.8Q95.49-23.8 94.09-23.45 92.69-23.1 91.74-22.05 90.79-21 90.29-18.95 89.79-16.9 89.79-13.4L89.79-13.4Q89.79-9.95 90.29-7.85 90.79-5.75 91.74-4.7 92.69-3.65 94.09-3.3 95.49-2.95 97.39-2.95ZM119.04-31.45L116.24-31.45Q115.44-31.45 115.44-32.25L115.44-32.25 115.44-36.15Q115.44-36.95 116.24-36.95L116.24-36.95 119.04-36.95Q119.44-36.95 119.62-36.73 119.79-36.5 119.79-36.15L119.79-36.15 119.79-32.25Q119.79-31.45 119.04-31.45L119.04-31.45ZM119.59 0L115.64 0 115.64-26.7 119.59-26.7 119.59 0Z" opacity="1" transform="matrix(1,0,0,1,0,0)" fill="#2257bf" class="wordmark-text-0" data-fill-palette-color="primary" id="text-0"></path></svg></g></svg></g></svg></g></svg></g></svg></g></svg></g></svg></g><g><path d="M245.816 0c68.262 0 123.6 55.338 123.6 123.6 0 68.262-55.338 123.6-123.6 123.6-50.43 0-93.806-30.202-113.027-73.505l4.012 0c18.977 41.228 60.653 69.85 109.015 69.85 66.244 0 119.945-53.701 119.945-119.945 0-66.244-53.701-119.945-119.945-119.945-48.362 0-90.038 28.622-109.015 69.85l-4.012 0c19.221-43.303 62.597-73.505 113.027-73.505z" fill="#2257bf" stroke="transparent" data-fill-palette-color="tertiary"></path></g></svg></g><defs></defs></svg><rect width="395.52" height="247.2" fill="none" stroke="none" visibility="hidden"></rect></g></svg></g></svg>