<svg xmlns="http://www.w3.org/2000/svg" version="1.1" xmlns:xlink="http://www.w3.org/1999/xlink" xmlns:svgjs="http://svgjs.dev/svgjs" width="1500" height="564" viewBox="0 0 1500 564"><g transform="matrix(1,0,0,1,-0.9084522071641459,0.9297037867144127)"><svg viewBox="0 0 396 149" data-background-color="#ffffff" preserveAspectRatio="xMidYMid meet" height="564" width="1500" xmlns="http://www.w3.org/2000/svg" xmlns:xlink="http://www.w3.org/1999/xlink"><g id="tight-bounds" transform="matrix(1,0,0,1,0.24008861730862918,-0.24540996947793303)"><svg viewBox="0 0 395.52 149.4910232039114" height="149.4910232039114" width="395.52"><g><svg viewBox="0 0 395.52 149.4910232039114" height="149.4910232039114" width="395.52"><g><svg viewBox="0 0 395.52 149.4910232039114" height="149.4910232039114" width="395.52"><g id="textblocktransform"><svg viewBox="0 0 395.52 149.4910232039114" height="149.4910232039114" width="395.52" id="textblock"><g><svg viewBox="0 0 395.52 149.4910232039114" height="149.4910232039114" width="395.52"><path d="M394.594 32.063C392.735 16.546 387.435 12.232 387.435 12.232 371.165-3.751 350.86-0.306 332.619 1.991 300.414 2.084 268.339 5.498 236.208 7.329 168.767 7.608 100.749 3.015 33.643 14.342 27.339 17.818-6.54 15.025 1.121 34.049 3.129 41.963 10.456 50.746 10.232 58.008 11.236 59.28 12.631 56.363 13.226 58.194 15.309 63.128 18.711 60.801 21.501 63.718 17.614 71.507 20.403 77.994 23.062 84.79 18.377 86.559 12.371 85.721 9.675 91.587 9.396 95.838 7.89 95.031 6.235 94.845 5.026 94.721 2.59 95.187 2.999 96.521 4.394 101.083-1.594 103.721 2.162 108.19-0.422 113.031 3.948 117.221 3.353 122.466 3.278 123.521 3.687 124.421 4.338 124.669 7.22 126.004 3.018 128.61 3.464 131.435 33.029 150.738 65.104 137.393 95.394 146.269 103.259 140.062 97.346 148.472 100.489 147.169 102.943 145.648 104.728 151.948 107.499 148.379 107.927 147.355 107.276 144.934 108.8 145.4 109.6 145.648 110.307 145.586 110.418 144.159 110.586 142.017 109.117 143.352 108.726 142.234 112.947 136.586 111.906 150.024 115.866 149.465 115.68 147.821 114.528 145.462 116.889 145.772 119.232 143.414 119.306 141.459 121.389 146.765 121.463 147.914 121.835 148.721 122.43 149.279 128.938 143.507 135.409 151.328 142.233 148.721 146.417 145.865 150.433 150.272 154.672 149.186 156.16 148.317 157.666 146.765 159.098 149.372 176.632 149.931 195.319 147.603 211.943 149.465 256.364 145.99 303.836 150.893 350.674 146.3 361.719 144.531 373.192 142.017 383.958 140 383.958 140 392.679 134.476 392.679 109.649S394.538 87.925 394.817 68.156C395.096 48.387 396.398 47.58 394.538 32.063Z" opacity="1" fill="#1c4b82" data-fill-palette-color="tertiary"></path><g transform="matrix(1,0,0,1,55.76832,26.230666666666668)"><svg width="283.98335999999995" viewBox="5 -39 115.89 39.6" height="97.02968987057807" data-palette-color="#ffffff"><path d="M9.75 0L5 0 5-34.45 23.3-34.45 22.75-30.65 9.75-30.65 9.75-18.9 21-18.9 21-15.15 9.75-15.15 9.75 0ZM47.05-6.15Q47.05-4.55 47.6-3.78 48.15-3 49.25-2.6L49.25-2.6 48.2 0.6Q46.15 0.35 44.9-0.55 43.65-1.45 43.05-3.35L43.05-3.35Q40.4 0.6 35.2 0.6L35.2 0.6Q31.3 0.6 29.05-1.6 26.8-3.8 26.8-7.35L26.8-7.35Q26.8-11.55 29.82-13.8 32.85-16.05 38.4-16.05L38.4-16.05 42.45-16.05 42.45-18Q42.45-20.8 41.1-22 39.75-23.2 36.95-23.2L36.95-23.2Q34.05-23.2 29.85-21.8L29.85-21.8 28.7-25.15Q33.6-26.95 37.8-26.95L37.8-26.95Q42.45-26.95 44.75-24.68 47.05-22.4 47.05-18.2L47.05-18.2 47.05-6.15ZM36.25-2.85Q40.2-2.85 42.45-6.95L42.45-6.95 42.45-13 39-13Q31.7-13 31.7-7.6L31.7-7.6Q31.7-5.25 32.85-4.05 34-2.85 36.25-2.85L36.25-2.85ZM68.55-26.95Q73.05-26.95 75.7-23.33 78.34-19.7 78.34-13.2L78.34-13.2Q78.34-9.1 77.09-5.98 75.84-2.85 73.5-1.13 71.15 0.6 68 0.6L68 0.6Q63.85 0.6 61-2.9L61-2.9 60.55 0 56.5 0 56.5-36.95 61.1-37.5 61.1-23.05Q63.95-26.95 68.55-26.95L68.55-26.95ZM66.9-3.05Q69.95-3.05 71.67-5.53 73.4-8 73.4-13.2L73.4-13.2Q73.4-18.55 71.8-20.93 70.2-23.3 67.25-23.3L67.25-23.3Q63.75-23.3 61.1-19.2L61.1-19.2 61.1-6.6Q62.15-4.95 63.67-4 65.2-3.05 66.9-3.05L66.9-3.05ZM96.09-26.95Q101.64-26.95 104.72-23.25 107.79-19.55 107.79-13.2L107.79-13.2Q107.79-9.1 106.39-5.98 104.99-2.85 102.34-1.13 99.69 0.6 96.04 0.6L96.04 0.6Q90.49 0.6 87.39-3.1 84.29-6.8 84.29-13.15L84.29-13.15Q84.29-17.25 85.69-20.38 87.09-23.5 89.74-25.23 92.39-26.95 96.09-26.95L96.09-26.95ZM96.09-23.25Q89.24-23.25 89.24-13.15L89.24-13.15Q89.24-3.1 96.04-3.1L96.04-3.1Q102.84-3.1 102.84-13.2L102.84-13.2Q102.84-23.25 96.09-23.25L96.09-23.25ZM115.39-26.35L119.99-26.35 119.99 0 115.39 0 115.39-26.35ZM117.64-39Q119.09-39 119.99-38.1 120.89-37.2 120.89-35.85L120.89-35.85Q120.89-34.5 119.99-33.63 119.09-32.75 117.64-32.75L117.64-32.75Q116.24-32.75 115.34-33.63 114.44-34.5 114.44-35.85L114.44-35.85Q114.44-37.2 115.34-38.1 116.24-39 117.64-39L117.64-39Z" opacity="1" transform="matrix(1,0,0,1,0,0)" fill="#ffffff" class="wordmark-text-0" data-fill-palette-color="quaternary" id="text-0"></path></svg></g></svg></g></svg></g></svg></g><g></g></svg></g><defs></defs></svg><rect width="395.52" height="149.4910232039114" fill="none" stroke="none" visibility="hidden"></rect></g></svg></g></svg>